<mxfile host="Electron" modified="2023-11-09T23:34:06.609Z" agent="Mozilla/5.0 (Windows NT 10.0; Win64; x64) AppleWebKit/537.36 (KHTML, like Gecko) draw.io/22.0.3 Chrome/114.0.5735.289 Electron/25.8.4 Safari/537.36" etag="VuTGEw_eVKbh-zF6jPqN" version="22.0.3" type="device">
  <diagram id="C5RBs43oDa-KdzZeNtuy" name="Page-1">
    <mxGraphModel dx="1036" dy="606" grid="1" gridSize="10" guides="1" tooltips="1" connect="1" arrows="1" fold="1" page="1" pageScale="1" pageWidth="827" pageHeight="1169" math="0" shadow="0">
      <root>
        <mxCell id="WIyWlLk6GJQsqaUBKTNV-0" />
        <mxCell id="WIyWlLk6GJQsqaUBKTNV-1" parent="WIyWlLk6GJQsqaUBKTNV-0" />
        <mxCell id="T9UZOMTdptr9Dn5YOGcp-2" style="edgeStyle=orthogonalEdgeStyle;rounded=0;orthogonalLoop=1;jettySize=auto;html=1;entryX=0.5;entryY=0;entryDx=0;entryDy=0;" parent="WIyWlLk6GJQsqaUBKTNV-1" source="T9UZOMTdptr9Dn5YOGcp-0" target="T9UZOMTdptr9Dn5YOGcp-1" edge="1">
          <mxGeometry relative="1" as="geometry" />
        </mxCell>
        <mxCell id="T9UZOMTdptr9Dn5YOGcp-0" value="Start" style="ellipse;whiteSpace=wrap;html=1;" parent="WIyWlLk6GJQsqaUBKTNV-1" vertex="1">
          <mxGeometry x="280" y="10" width="120" height="80" as="geometry" />
        </mxCell>
        <mxCell id="T9UZOMTdptr9Dn5YOGcp-4" style="edgeStyle=orthogonalEdgeStyle;rounded=0;orthogonalLoop=1;jettySize=auto;html=1;entryX=0.5;entryY=0;entryDx=0;entryDy=0;" parent="WIyWlLk6GJQsqaUBKTNV-1" source="T9UZOMTdptr9Dn5YOGcp-1" target="T9UZOMTdptr9Dn5YOGcp-3" edge="1">
          <mxGeometry relative="1" as="geometry" />
        </mxCell>
        <mxCell id="T9UZOMTdptr9Dn5YOGcp-1" value="number" style="shape=parallelogram;perimeter=parallelogramPerimeter;whiteSpace=wrap;html=1;fixedSize=1;" parent="WIyWlLk6GJQsqaUBKTNV-1" vertex="1">
          <mxGeometry x="260" y="120" width="160" height="80" as="geometry" />
        </mxCell>
        <mxCell id="RISEOhuSy-TxQlt44Xhb-0" style="edgeStyle=orthogonalEdgeStyle;rounded=0;orthogonalLoop=1;jettySize=auto;html=1;exitX=0.5;exitY=1;exitDx=0;exitDy=0;entryX=0.5;entryY=0;entryDx=0;entryDy=0;" edge="1" parent="WIyWlLk6GJQsqaUBKTNV-1" source="T9UZOMTdptr9Dn5YOGcp-3" target="T9UZOMTdptr9Dn5YOGcp-5">
          <mxGeometry relative="1" as="geometry" />
        </mxCell>
        <mxCell id="RISEOhuSy-TxQlt44Xhb-2" style="edgeStyle=orthogonalEdgeStyle;rounded=0;orthogonalLoop=1;jettySize=auto;html=1;exitX=1;exitY=0.5;exitDx=0;exitDy=0;" edge="1" parent="WIyWlLk6GJQsqaUBKTNV-1" source="T9UZOMTdptr9Dn5YOGcp-3" target="T9UZOMTdptr9Dn5YOGcp-6">
          <mxGeometry relative="1" as="geometry" />
        </mxCell>
        <mxCell id="T9UZOMTdptr9Dn5YOGcp-3" value="&lt;div&gt;number%3==0 ?&lt;br&gt;&lt;/div&gt;&lt;div&gt;number%5==0 ?&lt;br&gt;&lt;/div&gt;" style="rhombus;whiteSpace=wrap;html=1;" parent="WIyWlLk6GJQsqaUBKTNV-1" vertex="1">
          <mxGeometry x="245" y="240" width="190" height="120" as="geometry" />
        </mxCell>
        <mxCell id="T9UZOMTdptr9Dn5YOGcp-5" value="&lt;br&gt;number&amp;nbsp; ko chia hết cho cả 3 và 5&lt;br&gt;" style="rounded=0;whiteSpace=wrap;html=1;" parent="WIyWlLk6GJQsqaUBKTNV-1" vertex="1">
          <mxGeometry x="280" y="460" width="120" height="60" as="geometry" />
        </mxCell>
        <mxCell id="T9UZOMTdptr9Dn5YOGcp-6" value="number chia hết cho cả 3 và 5" style="rounded=0;whiteSpace=wrap;html=1;" parent="WIyWlLk6GJQsqaUBKTNV-1" vertex="1">
          <mxGeometry x="540" y="300" width="120" height="60" as="geometry" />
        </mxCell>
        <mxCell id="T9UZOMTdptr9Dn5YOGcp-9" value="end" style="ellipse;whiteSpace=wrap;html=1;" parent="WIyWlLk6GJQsqaUBKTNV-1" vertex="1">
          <mxGeometry x="470" y="580" width="120" height="80" as="geometry" />
        </mxCell>
        <mxCell id="T9UZOMTdptr9Dn5YOGcp-10" style="edgeStyle=orthogonalEdgeStyle;rounded=0;orthogonalLoop=1;jettySize=auto;html=1;entryX=0;entryY=0.4;entryDx=0;entryDy=0;entryPerimeter=0;" parent="WIyWlLk6GJQsqaUBKTNV-1" source="T9UZOMTdptr9Dn5YOGcp-5" target="T9UZOMTdptr9Dn5YOGcp-9" edge="1">
          <mxGeometry relative="1" as="geometry" />
        </mxCell>
        <mxCell id="T9UZOMTdptr9Dn5YOGcp-11" style="edgeStyle=orthogonalEdgeStyle;rounded=0;orthogonalLoop=1;jettySize=auto;html=1;entryX=0.558;entryY=0.013;entryDx=0;entryDy=0;entryPerimeter=0;" parent="WIyWlLk6GJQsqaUBKTNV-1" source="T9UZOMTdptr9Dn5YOGcp-6" target="T9UZOMTdptr9Dn5YOGcp-9" edge="1">
          <mxGeometry relative="1" as="geometry" />
        </mxCell>
        <mxCell id="RISEOhuSy-TxQlt44Xhb-1" value="sai&lt;br&gt;" style="text;html=1;align=center;verticalAlign=middle;resizable=0;points=[];autosize=1;strokeColor=none;fillColor=none;" vertex="1" parent="WIyWlLk6GJQsqaUBKTNV-1">
          <mxGeometry x="340" y="398" width="40" height="30" as="geometry" />
        </mxCell>
        <mxCell id="RISEOhuSy-TxQlt44Xhb-3" value="đúng&lt;br&gt;" style="text;html=1;align=center;verticalAlign=middle;resizable=0;points=[];autosize=1;strokeColor=none;fillColor=none;" vertex="1" parent="WIyWlLk6GJQsqaUBKTNV-1">
          <mxGeometry x="445" y="268" width="50" height="30" as="geometry" />
        </mxCell>
      </root>
    </mxGraphModel>
  </diagram>
</mxfile>
